<svg xmlns="http://www.w3.org/2000/svg" width="960" height="540" viewBox="0 0 960 540">
<rect width="100%" height="100%" fill="#ffffff"/>
<text x="80" y="28" font-family="Arial" font-size="22">AeroMap v0.3 geometry_heldout: best-design regret vs CFD labels</text>
<line x1="80" y1="470" x2="920" y2="470" stroke="#111" stroke-width="1"/>
<line x1="80" y1="40" x2="80" y2="470" stroke="#111" stroke-width="1"/>
<text x="430.0" y="520" font-family="Arial" font-size="15">labelled CFD cases</text>
<text x="18" y="315.0" transform="rotate(-90 18 315.0)" font-family="Arial" font-size="15">best-design regret</text>
<polyline points="80.0,363.5 220.0,297.0 360.0,380.3 500.0,424.5 640.0,422.3 780.0,388.8 920.0,470.0" fill="none" stroke="#2f6fed" stroke-width="3"/>
<circle cx="920.0" cy="470.0" r="4" fill="#2f6fed"/>
<rect x="650" y="53" width="14" height="4" fill="#2f6fed"/>
<text x="672" y="64" font-family="Arial" font-size="13">diversity</text>
<polyline points="80.0,285.6 220.0,382.3 360.0,346.4 500.0,274.6 640.0,414.3 780.0,431.7 920.0,442.2" fill="none" stroke="#5f3dc4" stroke-width="3"/>
<circle cx="920.0" cy="442.2" r="4" fill="#5f3dc4"/>
<rect x="650" y="73" width="14" height="4" fill="#5f3dc4"/>
<text x="672" y="84" font-family="Arial" font-size="13">engineering_decision_utility_v2_regret_aware</text>
<polyline points="80.0,290.9 220.0,40.0 360.0,290.9 500.0,423.3 640.0,388.6 780.0,423.3 920.0,393.3" fill="none" stroke="#69707a" stroke-width="3"/>
<circle cx="920.0" cy="393.3" r="4" fill="#69707a"/>
<rect x="650" y="93" width="14" height="4" fill="#69707a"/>
<text x="672" y="104" font-family="Arial" font-size="13">random</text>
<polyline points="80.0,222.8 220.0,90.7 360.0,238.0 500.0,356.2 640.0,345.7 780.0,385.0 920.0,414.9" fill="none" stroke="#d55e00" stroke-width="3"/>
<circle cx="920.0" cy="414.9" r="4" fill="#d55e00"/>
<rect x="650" y="113" width="14" height="4" fill="#d55e00"/>
<text x="672" y="124" font-family="Arial" font-size="13">uncertainty</text>
<polyline points="80.0,239.1 220.0,180.3 360.0,239.0 500.0,386.7 640.0,339.0 780.0,388.8 920.0,384.0" fill="none" stroke="#009e73" stroke-width="3"/>
<circle cx="920.0" cy="384.0" r="4" fill="#009e73"/>
<rect x="650" y="133" width="14" height="4" fill="#009e73"/>
<text x="672" y="144" font-family="Arial" font-size="13">uncertainty_plus_diversity</text>
<text x="80" y="494" font-family="Arial" font-size="12" fill="#555">Lower is better. Open-CFD 3D scalar replay; compact benchmark scope.</text>
</svg>
